<svg width="404" height="117" viewBox="0 0 404 117" fill="none" xmlns="http://www.w3.org/2000/svg">
<path d="M14.7 85.465C16.2867 85.6517 17.4183 86.1883 18.095 87.075C18.7717 87.9383 19.11 88.9883 19.11 90.225C19.11 90.995 18.9933 91.73 18.76 92.43C18.5267 93.1067 18.2467 93.69 17.92 94.18C17.5933 94.6467 17.3133 94.95 17.08 95.09C16.1467 95.6967 13.3 96 8.54 96H1.75V76.05H9.975C11.8417 76.05 13.3467 76.155 14.49 76.365C15.6567 76.5517 16.6017 76.995 17.325 77.695C18.0483 78.3717 18.41 79.41 18.41 80.81C18.41 82.0233 18.1067 83.0033 17.5 83.75C16.9167 84.4967 15.9833 85.01 14.7 85.29V85.465ZM11.9 80.285C11.6667 80.0517 11.3867 79.9117 11.06 79.865C10.7567 79.795 10.2667 79.76 9.59 79.76C8.91333 79.76 8.4 79.7717 8.05 79.795V84.065H8.4C8.51667 84.065 9.00667 84.065 9.87 84.065C10.7333 84.065 11.305 84.0067 11.585 83.89C11.795 83.7967 11.9817 83.5517 12.145 83.155C12.3317 82.7583 12.425 82.3267 12.425 81.86C12.425 81.16 12.25 80.635 11.9 80.285ZM12.495 91.975C12.6583 91.835 12.7867 91.5783 12.88 91.205C12.9967 90.8083 13.055 90.4117 13.055 90.015C13.055 89.525 12.985 89.07 12.845 88.65C12.7283 88.2067 12.565 87.8917 12.355 87.705C12.145 87.495 11.8417 87.355 11.445 87.285C11.0717 87.215 10.43 87.18 9.52 87.18C8.93667 87.18 8.44667 87.1917 8.05 87.215V92.29C9.14667 92.3133 10.1267 92.3017 10.99 92.255C11.8533 92.185 12.355 92.0917 12.495 91.975ZM31.1951 91.8C31.7785 91.8 32.8635 91.7417 34.4501 91.625C34.6601 91.625 35.0451 91.6017 35.6051 91.555L36.1301 95.16C34.3335 96 32.0001 96.42 29.1301 96.42C26.4468 96.42 24.3818 95.7433 22.9351 94.39C21.5118 93.0367 20.8001 90.995 20.8001 88.265C20.8001 86.865 20.9751 85.5117 21.3251 84.205C21.6985 82.8983 22.1185 81.9883 22.5851 81.475C23.0751 80.9617 23.9851 80.5183 25.3151 80.145C26.6451 79.7717 27.9635 79.585 29.2701 79.585C31.3701 79.585 32.9451 79.9583 33.9951 80.705C35.0451 81.4517 35.7335 82.49 36.0601 83.82C36.3868 85.1267 36.5501 86.8883 36.5501 89.105C34.9635 89.1983 33.4118 89.245 31.8951 89.245H26.9251C26.9251 89.9917 27.0768 90.5517 27.3801 90.925C27.7068 91.2983 28.1618 91.5433 28.7451 91.66C29.3285 91.7533 30.1451 91.8 31.1951 91.8ZM27.2751 83.75C27.1351 83.82 27.0301 84.1233 26.9601 84.66C26.8901 85.1967 26.8435 85.8033 26.8201 86.48H28.6401C29.7368 86.48 30.5301 86.4683 31.0201 86.445C31.0201 85.325 30.8568 84.5317 30.5301 84.065C30.2268 83.5983 29.6901 83.365 28.9201 83.365C28.2901 83.365 27.7418 83.4933 27.2751 83.75ZM48.6317 79.55C48.935 79.55 49.25 79.585 49.5767 79.655C49.9267 79.725 50.1833 79.8067 50.3467 79.9C50.3467 80.4133 50.2883 81.265 50.1717 82.455C50.055 83.6217 49.95 84.45 49.8567 84.94C49.6233 84.9167 49.1917 84.905 48.5617 84.905C47.0917 84.905 45.785 84.9867 44.6417 85.15V96H38.6567V79.9H43.6617L44.3617 82.49H44.3967C45.0733 81.6033 45.7967 80.8917 46.5667 80.355C47.3367 79.8183 48.025 79.55 48.6317 79.55ZM59.3384 89.385C59.3384 89.805 59.3501 90.2483 59.3734 90.715C59.3967 91.1583 59.4667 91.4383 59.5834 91.555C59.7467 91.7183 60.3184 91.8 61.2984 91.8L62.4884 91.765C62.6984 92.885 62.8034 94.18 62.8034 95.65C62.3601 95.8133 61.7067 95.965 60.8434 96.105C60.0034 96.245 59.1984 96.315 58.4284 96.315C56.8184 96.315 55.5701 95.965 54.6834 95.265C53.8201 94.5417 53.3884 93.4333 53.3884 91.94V83.33H50.7634V80.145L53.3884 79.9L54.9634 76.05L59.3384 75.805V79.9H63.0484V83.33H59.3384V89.385ZM72.6083 96.455C69.8083 96.455 67.7083 95.8017 66.3083 94.495C64.9317 93.165 64.2433 91.0767 64.2433 88.23C64.2433 86.6667 64.3833 85.3017 64.6633 84.135C64.9667 82.945 65.3283 82.1167 65.7483 81.65C66.285 81.0433 67.265 80.5417 68.6883 80.145C70.135 79.7483 71.4883 79.55 72.7483 79.55C75.7583 79.55 77.905 80.1917 79.1883 81.475C80.4717 82.7583 81.1133 84.8117 81.1133 87.635C81.1133 90.6683 80.425 92.8967 79.0483 94.32C77.6717 95.7433 75.525 96.455 72.6083 96.455ZM72.7133 92.36C73.6233 92.36 74.2183 92.045 74.4983 91.415C74.7783 90.7617 74.9183 89.6183 74.9183 87.985C74.9183 86.8417 74.86 85.9667 74.7433 85.36C74.6267 84.73 74.405 84.275 74.0783 83.995C73.775 83.6917 73.2967 83.54 72.6433 83.54C71.71 83.54 71.1733 83.6217 71.0333 83.785C70.8467 83.9483 70.695 84.4617 70.5783 85.325C70.4617 86.1883 70.4033 87.0867 70.4033 88.02C70.4033 89.6067 70.555 90.7267 70.8583 91.38C71.185 92.0333 71.8033 92.36 72.7133 92.36ZM98.9729 80.915C99.1829 81.1717 99.3346 81.8133 99.4279 82.84C99.5446 83.8667 99.6029 85.43 99.6029 87.53V96H93.6179V87.6V86.165C93.6179 85.4183 93.5596 84.9517 93.4429 84.765C93.2562 84.5317 92.8246 84.415 92.1479 84.415C91.8212 84.415 91.5762 84.4267 91.4129 84.45C90.7596 84.4733 90.0829 84.625 89.3829 84.905V96H83.3979V79.9H88.2629L88.9279 82.595C90.6079 80.565 92.6146 79.55 94.9479 79.55C95.7879 79.55 96.5696 79.6667 97.2929 79.9C98.0396 80.1333 98.5996 80.4717 98.9729 80.915ZM105.483 77.905C104.689 77.905 104.001 77.6367 103.418 77.1C102.858 76.5633 102.578 75.9217 102.578 75.175C102.578 74.4283 102.858 73.7867 103.418 73.25C104.001 72.7133 104.689 72.445 105.483 72.445C106.276 72.445 106.953 72.7133 107.513 73.25C108.073 73.7867 108.353 74.4283 108.353 75.175C108.353 75.9217 108.073 76.5633 107.513 77.1C106.953 77.6367 106.276 77.905 105.483 77.905ZM102.473 79.9H108.458V96H102.473V79.9ZM117.039 76.05H123.374V83.365H128.799V76.05H135.134V96H128.799V87.39H123.374V96H117.039V76.05ZM147.949 96L147.389 93.795C146.315 95.545 144.822 96.42 142.909 96.42C141.345 96.42 140.062 95.9883 139.059 95.125C138.079 94.2383 137.589 93.0017 137.589 91.415C137.589 90.435 137.869 89.5833 138.429 88.86C139.012 88.1133 139.805 87.5883 140.809 87.285C142.115 86.9117 144.134 86.7017 146.864 86.655C146.864 85.115 146.794 84.2983 146.654 84.205C146.537 84.1117 146.164 84.065 145.534 84.065C145.137 84.065 144.589 84.0883 143.889 84.135C142.769 84.1817 141.252 84.31 139.339 84.52C139.152 83.26 139.012 81.9067 138.919 80.46C140.155 80.2033 141.45 79.9933 142.804 79.83C144.157 79.6433 145.37 79.55 146.444 79.55C148.31 79.55 149.71 79.865 150.644 80.495C151.577 81.1017 152.184 81.9067 152.464 82.91C152.744 83.9133 152.872 85.185 152.849 86.725L152.814 91.87L152.919 96H147.949ZM144.939 92.5C145.545 92.5 146.187 92.3833 146.864 92.15V89.56H146.584C144.857 89.56 143.9 89.6533 143.714 89.84C143.597 89.9567 143.504 90.1317 143.434 90.365C143.387 90.5983 143.364 90.82 143.364 91.03C143.364 91.59 143.492 91.975 143.749 92.185C144.005 92.395 144.402 92.5 144.939 92.5ZM171.126 80.915C171.336 81.1717 171.488 81.8133 171.581 82.84C171.698 83.8667 171.756 85.43 171.756 87.53V96H165.771V87.6V86.165C165.771 85.4183 165.713 84.9517 165.596 84.765C165.41 84.5317 164.978 84.415 164.301 84.415C163.975 84.415 163.73 84.4267 163.566 84.45C162.913 84.4733 162.236 84.625 161.536 84.905V96H155.551V79.9H160.416L161.081 82.595C162.761 80.565 164.768 79.55 167.101 79.55C167.941 79.55 168.723 79.6667 169.446 79.9C170.193 80.1333 170.753 80.4717 171.126 80.915ZM190.551 74.755V96H185.616L185.126 93.305C184.659 94.215 183.971 94.9383 183.061 95.475C182.151 96.0117 181.124 96.28 179.981 96.28C178.161 96.28 176.703 95.6267 175.606 94.32C174.533 93.0133 173.996 91.0533 173.996 88.44C173.996 86.4567 174.229 84.8233 174.696 83.54C175.163 82.2567 175.711 81.335 176.341 80.775C176.738 80.425 177.543 80.1333 178.756 79.9C179.993 79.6667 181.089 79.55 182.046 79.55C182.886 79.55 183.749 79.6317 184.636 79.795C184.566 78.675 184.531 78.0567 184.531 77.94V75L190.551 74.755ZM182.606 91.59C183.236 91.59 183.889 91.485 184.566 91.275V83.68C183.889 83.5867 183.143 83.54 182.326 83.54C181.626 83.54 181.183 83.5983 180.996 83.715C180.739 83.9017 180.529 84.4383 180.366 85.325C180.226 86.1883 180.156 87.0983 180.156 88.055C180.156 89.4783 180.366 90.4233 180.786 90.89C181.229 91.3567 181.836 91.59 182.606 91.59ZM210.082 79.9L205.882 93.375C205.066 95.965 204.331 97.8433 203.677 99.01C203.024 100.2 202.371 101.028 201.717 101.495C201.344 101.752 200.749 101.95 199.932 102.09C199.139 102.23 198.276 102.3 197.342 102.3C195.942 102.3 194.822 102.172 193.982 101.915C193.959 101.355 193.982 100.667 194.052 99.85C194.122 99.0567 194.216 98.38 194.332 97.82C195.312 97.8667 196.269 97.89 197.202 97.89C197.902 97.89 198.427 97.8783 198.777 97.855C199.127 97.1783 199.454 96.4667 199.757 95.72L197.342 95.58L191.952 79.9H198.287L201.087 91.17L201.122 91.835H201.227L203.747 79.9H210.082ZM236.634 81.02C237.008 81.58 237.194 83.75 237.194 87.53V96H231.209V88.125V86.235C231.209 85.3717 231.128 84.8583 230.964 84.695C230.778 84.5083 230.381 84.415 229.774 84.415L229.354 84.45C228.631 84.4967 227.943 84.66 227.289 84.94C227.313 85.43 227.324 86.2933 227.324 87.53V96H221.339V88.125V86.025C221.339 85.3017 221.258 84.8583 221.094 84.695C220.908 84.5083 220.511 84.415 219.904 84.415L219.484 84.45C218.831 84.4733 218.154 84.625 217.454 84.905V96H211.469V79.9H216.334L216.964 82.525C217.734 81.4983 218.621 80.7517 219.624 80.285C220.628 79.795 221.643 79.55 222.669 79.55C223.533 79.55 224.349 79.6783 225.119 79.935C225.913 80.1917 226.461 80.5533 226.764 81.02C226.904 81.23 227.021 81.615 227.114 82.175C227.861 81.265 228.713 80.6 229.669 80.18C230.626 79.76 231.583 79.55 232.539 79.55C233.403 79.55 234.219 79.6783 234.989 79.935C235.783 80.1917 236.331 80.5533 236.634 81.02ZM249.565 96L249.005 93.795C247.932 95.545 246.438 96.42 244.525 96.42C242.962 96.42 241.678 95.9883 240.675 95.125C239.695 94.2383 239.205 93.0017 239.205 91.415C239.205 90.435 239.485 89.5833 240.045 88.86C240.628 88.1133 241.422 87.5883 242.425 87.285C243.732 86.9117 245.75 86.7017 248.48 86.655C248.48 85.115 248.41 84.2983 248.27 84.205C248.153 84.1117 247.78 84.065 247.15 84.065C246.753 84.065 246.205 84.0883 245.505 84.135C244.385 84.1817 242.868 84.31 240.955 84.52C240.768 83.26 240.628 81.9067 240.535 80.46C241.772 80.2033 243.067 79.9933 244.42 79.83C245.773 79.6433 246.987 79.55 248.06 79.55C249.927 79.55 251.327 79.865 252.26 80.495C253.193 81.1017 253.8 81.9067 254.08 82.91C254.36 83.9133 254.488 85.185 254.465 86.725L254.43 91.87L254.535 96H249.565ZM246.555 92.5C247.162 92.5 247.803 92.3833 248.48 92.15V89.56H248.2C246.473 89.56 245.517 89.6533 245.33 89.84C245.213 89.9567 245.12 90.1317 245.05 90.365C245.003 90.5983 244.98 90.82 244.98 91.03C244.98 91.59 245.108 91.975 245.365 92.185C245.622 92.395 246.018 92.5 246.555 92.5ZM272.742 80.915C272.952 81.1717 273.104 81.8133 273.197 82.84C273.314 83.8667 273.372 85.43 273.372 87.53V96H267.387V87.6V86.165C267.387 85.4183 267.329 84.9517 267.212 84.765C267.026 84.5317 266.594 84.415 265.917 84.415C265.591 84.415 265.346 84.4267 265.182 84.45C264.529 84.4733 263.852 84.625 263.152 84.905V96H257.167V79.9H262.032L262.697 82.595C264.377 80.565 266.384 79.55 268.717 79.55C269.557 79.55 270.339 79.6667 271.062 79.9C271.809 80.1333 272.369 80.4717 272.742 80.915ZM287.456 81.44C287.456 81.93 287.701 82.315 288.191 82.595C288.704 82.875 289.497 83.1783 290.571 83.505C291.854 83.925 292.904 84.3333 293.721 84.73C294.561 85.1267 295.284 85.745 295.891 86.585C296.521 87.425 296.836 88.5217 296.836 89.875C296.836 94.215 294.012 96.385 288.366 96.385C287.432 96.385 286.289 96.3033 284.936 96.14C283.606 95.9767 282.392 95.7667 281.296 95.51C281.342 95.02 281.436 94.3083 281.576 93.375C281.739 92.4183 281.891 91.7067 282.031 91.24C282.847 91.3567 284.072 91.4967 285.706 91.66C287.362 91.8233 288.611 91.905 289.451 91.905C289.941 91.905 290.232 91.87 290.326 91.8C290.466 91.7067 290.571 91.555 290.641 91.345C290.734 91.1117 290.781 90.9133 290.781 90.75C290.781 90.2833 290.559 89.9333 290.116 89.7C289.672 89.4433 288.914 89.14 287.841 88.79C286.557 88.3933 285.496 87.985 284.656 87.565C283.816 87.145 283.081 86.4917 282.451 85.605C281.821 84.7183 281.506 83.5517 281.506 82.105C281.506 81.0783 281.739 80.075 282.206 79.095C282.672 78.0917 283.151 77.415 283.641 77.065C284.014 76.8083 284.784 76.5633 285.951 76.33C287.117 76.0967 288.214 75.98 289.241 75.98C291.854 75.98 293.989 76.225 295.646 76.715C295.622 77.1817 295.541 77.8233 295.401 78.64C295.284 79.4567 295.156 80.2033 295.016 80.88L294.211 80.845C291.177 80.635 289.241 80.53 288.401 80.53C288.051 80.53 287.852 80.5417 287.806 80.565C287.712 80.6117 287.631 80.7167 287.561 80.88C287.491 81.0433 287.456 81.23 287.456 81.44ZM309.179 91.8C309.762 91.8 310.847 91.7417 312.434 91.625C312.644 91.625 313.029 91.6017 313.589 91.555L314.114 95.16C312.317 96 309.984 96.42 307.114 96.42C304.43 96.42 302.365 95.7433 300.919 94.39C299.495 93.0367 298.784 90.995 298.784 88.265C298.784 86.865 298.959 85.5117 299.309 84.205C299.682 82.8983 300.102 81.9883 300.569 81.475C301.059 80.9617 301.969 80.5183 303.299 80.145C304.629 79.7717 305.947 79.585 307.254 79.585C309.354 79.585 310.929 79.9583 311.979 80.705C313.029 81.4517 313.717 82.49 314.044 83.82C314.37 85.1267 314.534 86.8883 314.534 89.105C312.947 89.1983 311.395 89.245 309.879 89.245H304.909C304.909 89.9917 305.06 90.5517 305.364 90.925C305.69 91.2983 306.145 91.5433 306.729 91.66C307.312 91.7533 308.129 91.8 309.179 91.8ZM305.259 83.75C305.119 83.82 305.014 84.1233 304.944 84.66C304.874 85.1967 304.827 85.8033 304.804 86.48H306.624C307.72 86.48 308.514 86.4683 309.004 86.445C309.004 85.325 308.84 84.5317 308.514 84.065C308.21 83.5983 307.674 83.365 306.904 83.365C306.274 83.365 305.725 83.4933 305.259 83.75ZM326.615 79.55C326.918 79.55 327.233 79.585 327.56 79.655C327.91 79.725 328.167 79.8067 328.33 79.9C328.33 80.4133 328.272 81.265 328.155 82.455C328.038 83.6217 327.933 84.45 327.84 84.94C327.607 84.9167 327.175 84.905 326.545 84.905C325.075 84.905 323.768 84.9867 322.625 85.15V96H316.64V79.9H321.645L322.345 82.49H322.38C323.057 81.6033 323.78 80.8917 324.55 80.355C325.32 79.8183 326.008 79.55 326.615 79.55ZM340.262 79.9H346.527L341.627 96H333.332L328.432 79.9H334.697L337.322 92.255H337.672L340.262 79.9ZM351.029 77.905C350.236 77.905 349.548 77.6367 348.964 77.1C348.404 76.5633 348.124 75.9217 348.124 75.175C348.124 74.4283 348.404 73.7867 348.964 73.25C349.548 72.7133 350.236 72.445 351.029 72.445C351.823 72.445 352.499 72.7133 353.059 73.25C353.619 73.7867 353.899 74.4283 353.899 75.175C353.899 75.9217 353.619 76.5633 353.059 77.1C352.499 77.6367 351.823 77.905 351.029 77.905ZM348.019 79.9H354.004V96H348.019V79.9ZM370.517 95.51C368.627 96.14 366.515 96.455 364.182 96.455C361.569 96.455 359.609 95.8017 358.302 94.495C357.019 93.165 356.377 91.1 356.377 88.3C356.377 86.9233 356.564 85.57 356.937 84.24C357.31 82.8867 357.707 81.9767 358.127 81.51C358.617 80.9733 359.574 80.5183 360.997 80.145C362.444 79.7717 363.937 79.585 365.477 79.585C367.087 79.585 368.709 79.725 370.342 80.005C370.295 80.5883 370.214 81.2767 370.097 82.07C370.004 82.84 369.899 83.5283 369.782 84.135C368.335 84.0417 366.97 83.995 365.687 83.995C364.427 83.995 363.622 84.065 363.272 84.205C363.085 84.275 362.91 84.7533 362.747 85.64C362.607 86.5267 362.537 87.355 362.537 88.125C362.537 89.1517 362.677 89.945 362.957 90.505C363.26 91.0417 363.727 91.415 364.357 91.625C364.987 91.835 365.839 91.94 366.912 91.94C367.379 91.94 368.405 91.8933 369.992 91.8L370.517 95.51ZM382.289 91.8C382.872 91.8 383.957 91.7417 385.544 91.625C385.754 91.625 386.139 91.6017 386.699 91.555L387.224 95.16C385.427 96 383.094 96.42 380.224 96.42C377.541 96.42 375.476 95.7433 374.029 94.39C372.606 93.0367 371.894 90.995 371.894 88.265C371.894 86.865 372.069 85.5117 372.419 84.205C372.792 82.8983 373.212 81.9883 373.679 81.475C374.169 80.9617 375.079 80.5183 376.409 80.145C377.739 79.7717 379.057 79.585 380.364 79.585C382.464 79.585 384.039 79.9583 385.089 80.705C386.139 81.4517 386.827 82.49 387.154 83.82C387.481 85.1267 387.644 86.8883 387.644 89.105C386.057 89.1983 384.506 89.245 382.989 89.245H378.019C378.019 89.9917 378.171 90.5517 378.474 90.925C378.801 91.2983 379.256 91.5433 379.839 91.66C380.422 91.7533 381.239 91.8 382.289 91.8ZM378.369 83.75C378.229 83.82 378.124 84.1233 378.054 84.66C377.984 85.1967 377.937 85.8033 377.914 86.48H379.734C380.831 86.48 381.624 86.4683 382.114 86.445C382.114 85.325 381.951 84.5317 381.624 84.065C381.321 83.5983 380.784 83.365 380.014 83.365C379.384 83.365 378.836 83.4933 378.369 83.75ZM402.77 90.54C402.77 92.6167 402.105 94.11 400.775 95.02C399.469 95.93 397.602 96.385 395.175 96.385C393.472 96.385 391.512 96.14 389.295 95.65C389.342 95.1833 389.447 94.5183 389.61 93.655C389.797 92.7683 389.949 92.0917 390.065 91.625C390.905 91.765 391.839 91.8817 392.865 91.975C393.892 92.045 394.767 92.08 395.49 92.08C396.12 92.08 396.505 92.045 396.645 91.975C396.669 91.9517 396.692 91.8933 396.715 91.8C396.762 91.6833 396.785 91.5667 396.785 91.45C396.785 90.9833 396.494 90.6683 395.91 90.505C395.724 90.4583 395.012 90.26 393.775 89.91C392.539 89.56 391.524 88.93 390.73 88.02C389.96 87.0867 389.575 85.9317 389.575 84.555C389.575 83.8317 389.739 83.0267 390.065 82.14C390.392 81.2533 390.742 80.6933 391.115 80.46C391.395 80.2733 392.072 80.0867 393.145 79.9C394.219 79.69 395.21 79.585 396.12 79.585C398.057 79.585 400.005 79.725 401.965 80.005C401.965 80.425 401.907 81.1367 401.79 82.14C401.674 83.12 401.569 83.7383 401.475 83.995C399.492 83.7383 397.894 83.61 396.68 83.61C396.05 83.61 395.642 83.645 395.455 83.715C395.409 83.7383 395.362 83.8083 395.315 83.925C395.269 84.0183 395.245 84.1467 395.245 84.31C395.245 84.6367 395.35 84.87 395.56 85.01C395.77 85.1733 396.319 85.3717 397.205 85.605C398.255 85.9083 399.154 86.2233 399.9 86.55C400.67 86.8767 401.335 87.3667 401.895 88.02C402.479 88.6733 402.77 89.5133 402.77 90.54Z" fill="url(#paint0_linear_1_12)"/>
<line x1="124.232" y1="50.519" x2="166.806" y2="7.94549" stroke="url(#paint1_linear_1_12)" stroke-width="5"/>
<path d="M167.763 5.69855C166.492 5.15932 165.025 5.75257 164.485 7.02363C163.946 8.29469 164.539 9.76223 165.81 10.3015L167.763 5.69855ZM264.81 52.3015L267.112 53.2778L269.065 48.6749L266.763 47.6985L264.81 52.3015ZM165.81 10.3015L264.81 52.3015L266.763 47.6985L167.763 5.69855L165.81 10.3015Z" fill="url(#paint2_linear_1_12)"/>
<rect x="158.787" y="44" width="8" height="8" fill="#FDA91E"/>
<rect x="168.787" y="44" width="8" height="8" fill="#FDA91E"/>
<rect x="168.787" y="35" width="8" height="8" fill="#FDA91E"/>
<rect x="158.787" y="35" width="8" height="8" fill="#FDA91E"/>
<path d="M207.862 52.4114L267.275 53.2034L166.021 10.2238L207.862 52.4114Z" fill="url(#paint3_linear_1_12)"/>
<defs>
<linearGradient id="paint0_linear_1_12" x1="5" y1="89" x2="404" y2="89" gradientUnits="userSpaceOnUse">
<stop stop-color="#FB6900"/>
<stop offset="1" stop-color="#FFD231"/>
</linearGradient>
<linearGradient id="paint1_linear_1_12" x1="116.787" y1="59.5001" x2="167.287" y2="7.50007" gradientUnits="userSpaceOnUse">
<stop stop-color="#FB6900"/>
<stop offset="1" stop-color="#FEB423"/>
</linearGradient>
<linearGradient id="paint2_linear_1_12" x1="321.787" y1="47" x2="192.787" y2="-13.5001" gradientUnits="userSpaceOnUse">
<stop stop-color="#FB6900"/>
<stop offset="1" stop-color="#FEB423"/>
</linearGradient>
<linearGradient id="paint3_linear_1_12" x1="323.787" y1="59.5" x2="136.287" y2="-13.5" gradientUnits="userSpaceOnUse">
<stop stop-color="#FB6900"/>
<stop offset="1" stop-color="#FEC42B"/>
</linearGradient>
</defs>
</svg>
