<svg width="157" height="78" viewBox="0 0 157 78" fill="none" xmlns="http://www.w3.org/2000/svg">
<line x1="2.23223" y1="50.519" x2="44.8057" y2="7.94549" stroke="url(#paint0_linear_2_10)" stroke-width="5"/>
<path d="M45.7631 5.69855C44.492 5.15932 43.0245 5.75257 42.4853 7.02363C41.946 8.29469 42.5393 9.76223 43.8104 10.3015L45.7631 5.69855ZM142.81 52.3015L145.112 53.2778L147.065 48.6749L144.763 47.6985L142.81 52.3015ZM43.8104 10.3015L142.81 52.3015L144.763 47.6985L45.7631 5.69855L43.8104 10.3015Z" fill="url(#paint1_linear_2_10)"/>
<rect x="36.7867" y="44" width="8" height="8" fill="#FDA91E"/>
<rect x="46.7867" y="44" width="8" height="8" fill="#FDA91E"/>
<rect x="46.7867" y="35" width="8" height="8" fill="#FDA91E"/>
<rect x="36.7867" y="35" width="8" height="8" fill="#FDA91E"/>
<path d="M85.8624 52.4114L145.275 53.2034L44.0214 10.2238L85.8624 52.4114Z" fill="url(#paint2_linear_2_10)"/>
<defs>
<linearGradient id="paint0_linear_2_10" x1="-5.2132" y1="59.5001" x2="45.2868" y2="7.50007" gradientUnits="userSpaceOnUse">
<stop stop-color="#FB6900"/>
<stop offset="1" stop-color="#FEB423"/>
</linearGradient>
<linearGradient id="paint1_linear_2_10" x1="199.787" y1="47" x2="70.7868" y2="-13.5001" gradientUnits="userSpaceOnUse">
<stop stop-color="#FB6900"/>
<stop offset="1" stop-color="#FEB423"/>
</linearGradient>
<linearGradient id="paint2_linear_2_10" x1="201.787" y1="59.5" x2="14.2867" y2="-13.5" gradientUnits="userSpaceOnUse">
<stop stop-color="#FB6900"/>
<stop offset="1" stop-color="#FEC42B"/>
</linearGradient>
</defs>
</svg>
